<svg id="case" xmlns="http://www.w3.org/2000/svg" viewBox="0 0 317.11 211.4"><defs><style>.cls-1{fill:#f83e32;}</style></defs><path class="cls-1" d="M65.16,112.9a4.66,4.66,0,0,1-3.2-1.31c-6.47-6.32-13-12.61-19.4-19-1.91-1.89-3.74-4.18-2.17-7,1.46-2.6,3.42-4.63,7-4.6,17.71.17,35.41.17,53.11.22a2.66,2.66,0,0,1,2,1c2.33,2.84,4.36,5.87,3,9.85-1.29,3.8-1.14,7.89-2.28,11.53-2,6.38-4,10.12-12.6,9.72S73.67,113,65.16,112.9ZM99.72,83.13"/><path class="cls-1" d="M146.22,171.14c-10.29,4.17-18.59,1.87-25.81-6-6.58-12.23-2.63-21.8,7.42-29.86,7.93-4.18,15.15-.19,22.53,1.94,5,3.71,11.23,4.86,16.76,7.51,3.59,1.73,6.6,3.37,7,7.84.48,4.75-1.67,7.67-5.79,9.49l-7.72,3.05Z"/></svg>